<svg width="556" height="353" viewBox="0 0 556 353" fill="none" xmlns="http://www.w3.org/2000/svg">
<path d="M270.064 78.6982L227.609 105.207C227.081 131.928 224.656 141.499 217.461 152.84L270.686 116.391L270.064 78.6982Z" fill="#2F6DA3"/>
<path d="M217.5 152.888L38.5206 280H0L134.615 0L191.775 112.663L163.402 132.959L134.201 72.4852L69.9999 213.314L227.648 105.255C227.321 128.169 225.927 139.581 217.5 152.888Z" fill="#F2F4F7"/>
<path d="M191.779 94.4379H227.401L227.03 37.6923H276.276C283.699 37.6095 287.73 37.7884 294.087 39.5562C308.011 43.4294 314.924 46.738 325.98 54.2604C333.985 60.3793 337.958 64.448 344.412 72.4852C350.413 80.8479 353.262 85.9621 357.874 95.4734C361.305 103.45 362.882 108.06 364.915 116.598L366.779 128.817C367.489 136.744 367.476 141.185 366.779 149.112C366.555 152.443 365.521 162.176 362.43 173.136C358.914 183.027 356.506 188.485 351.039 197.988C344.604 208.183 340.007 213.606 329.915 222.633C320.864 230.128 314.241 233.649 300.3 238.994C291.151 241.703 282.36 242.586 270.27 243.136H227.401C216.686 266.037 208.945 273.538 191.779 280H280.418C290.609 279.308 296.258 278.584 306.099 276.065C318.757 272.208 325.74 269.359 337.785 261.775C348.175 255.348 353.342 251.254 361.187 242.929C367.689 236.058 371.029 231.864 376.72 224.083C382.251 215.949 384.942 210.976 389.353 201.716C393.552 192.153 395.225 185.865 398.465 175C400.414 165.538 401.199 160.196 401.779 150.562L401.986 131.923C401.726 120.659 400.691 114.472 398.051 103.55C394.158 89.1257 391.339 81.6142 384.797 69.5858C381.351 62.7154 379.042 58.8982 373.82 52.1893C368.283 44.0143 364.64 39.5442 356.838 33.1361C346.565 23.3469 329.964 13.1956 322.667 9.73373C315.369 6.27183 308.584 4.55621 302.785 3.10651C296.986 1.6568 291.467 0.605562 280.418 0H191.779V94.4379Z" fill="#F2F4F7"/>
<path d="M227.401 243.136L228.229 162.781L192.608 186.391L191.779 280C208.074 274.361 217.942 264.881 227.401 243.136Z" fill="#2F6DA3"/>
<path d="M555.445 0H518.582L425.801 204.615L405.505 160.71C402.733 180.829 399.368 191.649 390.594 210.828L425.801 280L555.445 0Z" fill="#F2F4F7"/>
<path d="M0 352.888L30.1538 282.888H39.5709L69.8197 352.888H59.8319L32.9123 288.488H36.7172L9.79759 352.888H0ZM12.8415 335.388L15.4098 327.388H52.888L55.6465 335.388H12.8415Z" fill="#2F6DA3"/>
<path d="M92 352.888V282.888H120.061C127.195 282.888 133.473 284.388 138.895 287.288C144.317 290.188 148.503 294.288 151.547 299.588C154.59 304.888 156.017 310.988 156.017 317.888C156.017 324.788 154.495 330.888 151.547 336.188C148.503 341.488 144.317 345.588 138.895 348.488C133.473 351.388 127.195 352.888 120.061 352.888H92ZM101.512 344.188H119.49C125.007 344.188 129.764 343.088 133.759 340.888C137.754 338.688 140.893 335.588 143.176 331.688C145.364 327.688 146.505 323.088 146.505 317.888C146.505 312.588 145.364 307.988 143.176 304.088C140.988 300.188 137.849 297.088 133.759 294.888C129.764 292.688 124.912 291.588 119.49 291.588H101.512V344.188Z" fill="#2F6DA3"/>
<path d="M202.333 352.888L173 282.888H183.286L210.238 347.488H204.333L231.476 282.888H241L211.762 352.888H202.333Z" fill="#2F6DA3"/>
<path d="M278 282.888H268V352.888H278V282.888Z" fill="#2F6DA3"/>
<path d="M327.854 352.79C322.939 352.79 318.209 352.01 313.665 350.353C309.121 348.793 305.597 346.746 303 344.113L306.431 336.509C308.935 338.751 312.088 340.701 315.891 342.163C319.693 343.626 323.68 344.406 327.854 344.406C331.656 344.406 334.716 343.918 337.035 343.041C339.353 342.163 341.115 340.896 342.228 339.239C343.341 337.679 343.897 335.826 343.897 333.877C343.897 331.537 343.155 329.684 341.764 328.222C340.281 326.76 338.426 325.59 336.107 324.712C333.789 323.835 331.192 323.055 328.41 322.47C325.628 321.787 322.846 321.007 320.064 320.13C317.282 319.253 314.685 318.083 312.366 316.815C310.048 315.45 308.193 313.598 306.71 311.356C305.318 309.016 304.577 306.091 304.577 302.386C304.577 298.877 305.504 295.659 307.266 292.637C309.028 289.712 311.717 287.275 315.427 285.52C319.136 283.765 323.773 282.888 329.43 282.888C333.232 282.888 336.942 283.375 340.651 284.448C344.361 285.52 347.607 286.982 350.296 288.932L347.236 296.732C344.454 294.782 341.486 293.417 338.426 292.54C335.365 291.662 332.305 291.272 329.43 291.272C325.813 291.272 322.753 291.76 320.435 292.734C318.116 293.709 316.354 294.977 315.334 296.634C314.221 298.292 313.665 300.046 313.665 302.094C313.665 304.531 314.407 306.384 315.798 307.846C317.282 309.308 319.136 310.381 321.455 311.258C323.773 312.136 326.277 312.818 329.152 313.501C331.934 314.183 334.716 314.963 337.591 315.84C340.373 316.718 342.97 317.79 345.288 319.155C347.607 320.52 349.462 322.372 350.945 324.615C352.336 326.857 353.078 329.782 353.078 333.389C353.078 336.801 352.151 340.019 350.389 343.041C348.627 345.966 345.845 348.403 342.043 350.158C338.333 351.913 333.603 352.79 327.854 352.79Z" fill="#2F6DA3"/>
<path d="M387 282.888H377V352.888H387V282.888Z" fill="#2F6DA3"/>
<path d="M443.59 352.888C438.675 352.888 434.038 352.009 429.865 350.252C425.599 348.494 421.983 346.054 418.83 342.93C415.77 339.805 413.358 336.096 411.597 331.8C409.835 327.602 409 322.916 409 317.937C409 312.957 409.835 308.271 411.597 304.073C413.358 299.875 415.77 296.165 418.83 292.943C421.89 289.819 425.599 287.379 429.772 285.524C433.945 283.766 438.582 282.888 443.59 282.888C448.504 282.888 453.048 283.766 457.314 285.426C461.487 287.183 465.104 289.624 468.257 292.748C471.41 295.872 473.821 299.582 475.49 303.878C477.159 308.076 478.086 312.762 477.994 317.839C477.994 322.916 477.159 327.602 475.49 331.8C473.821 335.998 471.41 339.708 468.257 342.93C465.104 346.054 461.487 348.494 457.314 350.252C453.141 352.009 448.597 352.888 443.59 352.888ZM443.59 344.199C447.206 344.199 450.545 343.515 453.512 342.246C456.572 340.977 459.262 339.122 461.487 336.779C463.713 334.436 465.475 331.605 466.773 328.48C468.071 325.259 468.72 321.842 468.72 318.034C468.72 314.227 468.071 310.81 466.773 307.588C465.475 304.366 463.713 301.632 461.487 299.289C459.262 296.946 456.572 295.091 453.512 293.822C450.452 292.553 447.113 291.87 443.59 291.87C439.973 291.87 436.542 292.553 433.574 293.822C430.514 295.091 427.825 296.946 425.599 299.289C423.281 301.632 421.519 304.464 420.313 307.588C419.015 310.81 418.366 314.227 418.366 318.034C418.366 321.842 419.015 325.259 420.313 328.48C421.612 331.702 423.374 334.436 425.599 336.779C427.918 339.122 430.607 340.977 433.574 342.246C436.635 343.515 439.973 344.199 443.59 344.199Z" fill="#2F6DA3"/>
<path d="M498 352.888V282.888H505.764L549.603 340.388H545.532V282.888H555V352.888H547.236L503.397 295.388H507.468V352.888H498Z" fill="#2F6DA3"/>
</svg>
